<svg xmlns="http://www.w3.org/2000/svg" viewBox="0 0 520.2 519.23"><defs><style>.cls-1{fill:#e2d6fa;}.cls-2{fill:#fbf3fe;}.cls-3{fill:#96b3ff;}.cls-4{fill:#628aec;}.cls-5{fill:#08104e;}.cls-6{fill:#0f1d8f;}.cls-7{fill:#fff;}.cls-8{fill:#b1b8ff;}.cls-9{fill:#ccdbff;}.cls-10{fill:#5065fc;}.cls-11{fill:#f4b67e;}.cls-12{fill:#fdd8b1;}.cls-13{fill:#f34f46;}.cls-14{fill:#fc5b53;} height:80vh</style></defs><title>Asset 1</title><g id="Layer_2" data-name="Layer 2"><g id="design"><path class="cls-1" d="M368.65,381.55q2.7-2.81,5.15-5.67Z"/><path class="cls-1" d="M353.59,384.35l20.27-8.55a131.34,131.34,0,0,0,18.07-27.6c-9.18-3.42-27.55,2-27.55,2,18.09-7,24.73-7.17,30.67-9.44,4.64-12.74,1.87-28,1.35-40.77-18.5,13.08-24,15-24,15,11.78-6.73,17.63-15,23.68-20.52-2.61-32-14.78-43.93-14.78-43.93-8.76,4-26.49,15.66-33.51,19.88-1.51,14.61-.24,33.44-.24,33.44-2.71-8.88-3.71-21.59-4.07-30.76-10,6.36-8.26,5.44-15,12.28-2.12,14.83,1.59,41.51,1.59,41.51-4-10.56-6-26.86-6.78-35.86C312.41,303.75,306,317.33,302,332.13c2.64,13.35,6.92,26.95,6.92,26.95-3.22-5.69-6.15-13.32-8.52-20.5-3.83,17.09-5,35.79-6.49,56.54l4.25,18.55L323,409.48c18.74-5,33.88-15.74,45.52-27.77Z"/><path class="cls-2" d="M324.57,380.58c-3.24,5.22-6.65,10.35-10.4,15.25a77.15,77.15,0,0,1-12.78,13.47l-.25-.24a76,76,0,0,0,12.15-13.84c3.54-5,6.72-10.23,9.74-15.55,6.08-10.62,11.53-21.61,16.93-32.62s10.48-22.22,16.48-32.95c3-5.37,6.08-10.69,9.4-15.87a168.2,168.2,0,0,1,10.68-15.07l.3.19c-6.05,10.69-11.7,21.53-17.25,32.45s-11.4,21.7-17.09,32.58S331,370.08,324.57,380.58Z"/><path class="cls-3" d="M376.11,454.53c20.44-1.34,29.16-.52,35.77-2.68a132.76,132.76,0,0,0,14.76-42.37c-22,13.32-38.43,11.66-38.43,11.66,16.52-1.86,31.88-12,39.37-17.69a194.2,194.2,0,0,0-2.46-65.2c-9.92,4-18.91,8.05-27.08,12.28-5,15.94-8.11,36.65-8.11,36.65-.69-9.88,1.27-23.88,3.06-33.95a186.39,186.39,0,0,0-30.18,20.32c-5.66,16.14-8.13,45.6-8.13,45.6-1.61-11.81.22-29.79,1.49-39.7a143.13,143.13,0,0,0-31.49,43.83c-.42,14.79.76,29.93.76,29.93-2-6.41-3.17-14.94-3.91-22.95-7.94,18.53-13.55,39-19.95,61.64v20.57L328,509.26c39.39-8.65,63.9-27.41,78.91-49.45C398.35,455.55,376.11,454.53,376.11,454.53Z"/><path class="cls-4" d="M305.77,507.58a104.19,104.19,0,0,0,15.7-14.5c4.8-5.28,9.29-10.84,13.64-16.51,8.72-11.31,16.88-23.06,25-34.84s16-23.78,24.63-35.21c4.33-5.72,8.74-11.38,13.35-16.88s9.41-10.87,14.49-15.94l.26.23c-8.71,11.38-17.05,23-25.3,34.63s-16.78,23.16-25.17,34.77-16.88,23.17-25.92,34.32c-4.54,5.55-9.24,11-14.23,16.14A104.82,104.82,0,0,1,306,507.87Z"/><path class="cls-1" d="M97.91,340.69c-.79-2.1-1.62-4.17-2.5-6.17Z"/><path class="cls-1" d="M95.37,352.6V334.44a137.8,137.8,0,0,0-14.24-25.11c-5.2,5-6.85,20.41-6.85,20.41.45-15.93,2.33-20.7,2.5-25.92-7.68-9-19.39-13.81-28.65-19.14,3.75,18.93,3.49,23.7,3.49,23.7-1.25-11.34-5.4-19.18-7.5-25.91-23.58-12.42-35.77-9.13-35.77-9.13.26,8,3.2,25.74,4.1,32.58,10,7.6,23.76,15.09,23.76,15.09-7.15-2-16.51-7-23.15-10.84,1.53,9.91,1.39,8.28,4.24,16.11,9.93,8.12,30.06,17.39,30.06,17.39-8.73-1.88-20.93-7.77-27.6-11.2a107.29,107.29,0,0,0,22.85,33.4C52.93,370,63.91,373,63.91,373a92.09,92.09,0,0,1-17.18-3.11c11,10.33,24,19.52,38.35,29.82L99.58,405l4.5-19.47c2.06-15.51-1-31-6.1-44.62Z"/><path class="cls-2" d="M84,371.47c2.75,4.62,5.38,9.32,7.74,14.16a78.93,78.93,0,0,1,5.77,15.06l-.25.06A79.38,79.38,0,0,0,91,386c-2.5-4.73-5.27-9.32-8.15-13.83-5.75-9-11.94-17.8-18.16-26.54S52,328.28,46.16,319.25c-2.92-4.52-5.79-9.07-8.48-13.73s-5.26-9.41-7.53-14.29l.23-.12C36.17,300.16,42.2,309,48.32,317.8s12,17.74,18.07,26.62S78.4,362.25,84,371.47Z"/><path class="cls-3" d="M87.48,428.45c5.19-18.49,8.64-25.93,8.8-32.46a124.67,124.67,0,0,0-32.84-26.27c4.88,23.63-1.7,37.61-1.7,37.61,3.52-15.19-.65-31.93-3.35-40.33A182,182,0,0,0,0,348.82c.4,10,1.21,19.23,2.4,27.77C14.93,386,32.26,395.2,32.26,395.2c-8.95-2.47-20.71-8.58-29.06-13.3a175.2,175.2,0,0,0,8.54,33c12.5,10,37.77,21.43,37.77,21.43-10.94-2.26-26.26-9.49-34.63-13.71A134.27,134.27,0,0,0,43.8,464.15c12.93,5,26.69,8.68,26.69,8.68-6.28-.27-14.2-1.87-21.51-3.72,13.9,12.81,30.21,24.15,48.26,36.88l18.18,6.42L120.84,488c4.66-37.51-4.27-65-19.07-85.18C95.32,409.11,87.48,428.45,87.48,428.45Z"/><path class="cls-4" d="M112.41,507.18a98.78,98.78,0,0,0-7.92-18.4c-3.17-5.89-6.68-11.6-10.33-17.21-7.28-11.24-15.12-22.12-23-33s-16-21.54-23.44-32.77C44,400.21,40.4,394.54,37,388.74S30.32,377,27.42,371l.29-.16c7.34,11.25,15,22.24,22.7,33.18S65.65,426,73.29,437.09s15.21,22.15,22.24,33.62c3.49,5.75,6.83,11.6,9.83,17.62a99.12,99.12,0,0,1,7.36,18.77Z"/><path class="cls-1" d="M351.38,154.59c2.07-1.7,4.08-3.44,6-5.19Z"/><path class="cls-1" d="M337.65,156.72l19.82-7.39a182.16,182.16,0,0,0,23.27-25.53c-6.93-3.56-24.25,1-24.25,1,17.52-6,23.27-5.93,29-7.87C393.06,105,395,90.42,398.09,78.3,378.52,90,373.23,91.7,373.23,91.7c12-6,19.37-13.61,26.11-18.61,6.72-30.4-.4-42.15-.4-42.15-8.66,3.53-27.16,13.92-34.37,17.67C359.17,62.4,355,80.28,355,80.28c.16-8.51,2.86-20.59,5.12-29.29-10.36,5.68-8.62,4.87-16.34,11.12-6,14-10.28,39.39-10.28,39.39-.47-10.15,2.42-25.66,4.23-34.22a142.59,142.59,0,0,0-29.83,38.15c-1.46,12.74-1.6,25.78-1.6,25.78-1.18-5.5-1.55-12.83-1.58-19.73-8.08,16.06-14.34,33.74-21.43,53.35l-1.54,17.73,22.55-3.1c17.52-4.1,33.54-13.73,46.91-24.72Z"/><path class="cls-2" d="M313.76,152.13c-4.25,4.83-8.62,9.58-13.21,14.08a103.85,103.85,0,0,1-14.77,12.33l-.14-.24A103.77,103.77,0,0,0,300,165.61c4.44-4.61,8.65-9.46,12.73-14.39,8.21-9.86,16-20.08,23.7-30.33s15.24-20.68,23.41-30.64c4.07-5,8.22-9.91,12.52-14.71s8.74-9.47,13.41-13.9l.2.19c-8.2,9.91-16.09,20-23.93,30.15s-15.88,20.16-23.82,30.26S322.21,142.41,313.76,152.13Z"/><path class="cls-3" d="M321.28,76.56c11.69-14,17.26-19.47,20.32-24.67a59.5,59.5,0,0,0-8.89-25.84c-7.63,19.61-18.16,29.83-18.16,29.83,9.13-11.63,14.09-25.64,16.2-32.75A70.85,70.85,0,0,0,302,0c-4.29,8.06-8,15.55-11.1,22.56,3.68,9.35,10.49,19.28,10.49,19.28-4.56-3.3-9.24-9.91-12.39-14.92a192.12,192.12,0,0,0-9.58,27.66c3.36,9.88,14.21,22.7,14.21,22.7-5.91-3.42-12.34-11.45-15.73-16.06-2.88,14.36-2.66,26.34-.52,37.46a116,116,0,0,0,13,10.86,46.77,46.77,0,0,1-11.95-6.13c3,12.29,8.18,23.76,13.85,36.59l8.61,7.82,14.52-18.71c20-29.32,26.84-52.64,26.61-70.94C335,62.25,321.28,76.56,321.28,76.56Z"/><path class="cls-4" d="M301.31,143.19a89.88,89.88,0,0,0,3.34-15.88c.67-5.18,1-10.26,1.27-15.28.49-10.07.47-19.92.41-29.77s-.39-19.58,0-29.65c.21-5,.48-10.1.94-15.24s1.1-10.34,2-15.63l.25-.08c-.46,10.08-.61,20-.67,29.88s-.36,19.88-.53,29.83-.43,20-1.18,30.17c-.4,5.11-.94,10.28-1.77,15.54a95.94,95.94,0,0,1-3.86,16.09Z"/><path class="cls-5" d="M297.16,72.44h-15a38.33,38.33,0,0,1,38.32,38.33V480.91a38.32,38.32,0,0,1-38.32,38.32h15a38.32,38.32,0,0,0,38.32-38.32V110.77A38.33,38.33,0,0,0,297.16,72.44Z"/><rect class="cls-6" x="87.19" y="72.44" width="233.27" height="446.79" rx="38.33"/><rect class="cls-7" x="96.5" y="100.06" width="214.65" height="368.58" rx="11.12"/><path class="cls-8" d="M224.72,91.28h-41.8a4.18,4.18,0,0,1-4.18-4.18h0a4.18,4.18,0,0,1,4.18-4.18h41.8a4.18,4.18,0,0,1,4.18,4.18h0A4.18,4.18,0,0,1,224.72,91.28Z"/><path class="cls-8" d="M216.34,503.26h-25a10.49,10.49,0,0,1-10.49-10.49h0a10.49,10.49,0,0,1,10.49-10.5h25a10.5,10.5,0,0,1,10.49,10.5h0A10.49,10.49,0,0,1,216.34,503.26Z"/><rect class="cls-8" x="123.15" y="125.12" width="166.97" height="24.44"/><rect class="cls-8" x="123.15" y="176.21" width="166.97" height="24.44"/><rect class="cls-8" x="123.15" y="227.3" width="110.22" height="24.44"/><path class="cls-9" d="M380.32,463.54c-.79,2.9-1.15,6.07.09,8.75,2.57,5.52,10.18,6.22,16.38,5.53,16.86-1.87,33.28-8.25,50.2-8.21,12.45,0,24.56,3.56,37,4s26.35-3,33.42-13.28c2.89-4.2,4.17-10.32.72-13.91-2-2.1-5.14-2.77-8.07-3.23-27.37-4.37-55.2-.14-82.81-.54-9-.13-17.59-4.67-26.38-1.37A34.25,34.25,0,0,0,380.32,463.54Z"/><path class="cls-10" d="M327.88,316.57,178.27,403A16.33,16.33,0,0,1,156,397l-48-83.12a16.31,16.31,0,0,1,6-22.3l149.6-86.38a16.33,16.33,0,0,1,22.31,6l48,83.11A16.33,16.33,0,0,1,327.88,316.57Z"/><path class="cls-11" d="M163.42,301.2a3.22,3.22,0,0,0-1.18,4.4l2.75,4.77L176,304l-4.37-7.56Z"/><rect class="cls-11" x="135.65" y="314.15" width="13.03" height="8.73" transform="translate(-140.21 113.76) rotate(-30)"/><path class="cls-11" d="M156.81,327.72l12.29-7.1-8.22-14.24a4.79,4.79,0,0,1,1.75-6.53l8.22-4.74A9.47,9.47,0,0,0,158,291.73l-16.46,9.5Z"/><path class="cls-11" d="M165.77,311.73l4.69,8.11,2.8-1.62a9.46,9.46,0,0,0,3.51-12.84Z"/><path class="cls-11" d="M144.84,310.12,140.16,302l-3.08,1.78a9.47,9.47,0,0,0-3.52,12.84Z"/><path class="cls-11" d="M150.77,320.39l-11.28,6.51a9.46,9.46,0,0,0,12.88,3.38l3.08-1.78Z"/><circle class="cls-11" cx="265.38" cy="247.37" r="15.03" transform="translate(-97.3 256.35) rotate(-44.41)"/><circle class="cls-12" cx="249.21" cy="256.71" r="15.03" transform="translate(-108.38 268.18) rotate(-47.69)"/><rect class="cls-11" x="159.81" y="355.53" width="10.34" height="10.34" transform="translate(-158.25 130.81) rotate(-30)"/><rect class="cls-11" x="167.32" y="361.11" width="65.77" height="10.34" transform="translate(-156.32 149.17) rotate(-30)"/><rect class="cls-11" x="175.81" y="346.29" width="10.34" height="10.34" transform="translate(-151.49 137.58) rotate(-30)"/><rect class="cls-11" x="191.81" y="337.05" width="10.34" height="10.34" transform="translate(-144.72 144.34) rotate(-30)"/><rect class="cls-11" x="207.81" y="327.82" width="10.34" height="10.34" transform="translate(-137.96 151.1) rotate(-30)"/><rect class="cls-11" x="223.81" y="318.58" width="10.34" height="10.34" transform="translate(-131.2 157.87) rotate(-30)"/><rect class="cls-11" x="263.53" y="295.64" width="10.34" height="10.34" transform="translate(-114.41 174.65) rotate(-30)"/><rect class="cls-11" x="276.55" y="288.13" width="10.34" height="10.34" transform="translate(-108.91 180.16) rotate(-30)"/><rect class="cls-11" x="289.56" y="280.62" width="10.34" height="10.34" transform="translate(-103.41 185.65) rotate(-30)"/><path class="cls-11" d="M378.85,132.85c2.32,4.51,1.89,10.75,6,13.88s10.15,4.26,14.89,2c.33,3.33.91,5.76.7,9.3-.19,3.39,6.46,9.88,9.92,9.36,3.29-.5,8.78-7.59,9.64-10.67s1.77-2.75,1.07-5.86c-4.16-18.62-3.16-16.56-17.6-28.59-5.8-4.83-19.09-13.28-26.82-12C368.24,111.72,375.64,126.6,378.85,132.85Z"/><path class="cls-11" d="M320.43,243.81s-12.82.2-18.29.91c-4.23.56-5.79,2.25-5.79,2.25s-.38,3.35,7.65,2.76c4-.29,4.9,1.45,4.9,1.45l4,7s8.32-6,10.4-8.44S320.43,243.81,320.43,243.81Z"/><path class="cls-13" d="M395.74,156.75c-3.84,1.81-18.94,11.37-21,15-2.75,4.94-14.24,44-15.66,45.87s-41.28,25.07-41.28,25.07l6.44,8.28s40.88-17,49.08-22.57c5.27-3.59,14.27-31.35,14.27-31.35s5.53-17.32,5.71-21.52S395.74,156.75,395.74,156.75Z"/><path class="cls-14" d="M379,167.72c5.59-4,21.52-13.76,21.45-13.58a14,14,0,0,0,9.69,11.39c5.69-2.24,10.89-15.18,10.89-15.18s22.58,4.12,29.31,11.57c6.18,6.85-2.66,41.94-2.48,53.76.13,9.24,4,27.74,3.82,41.83-16.88,4.67-52.35,1.31-52.35,1.31s0-12.61-1.83-20.95-8.61-36.64-8.61-36.64C383.15,178.32,381.39,184.88,379,167.72Z"/><path class="cls-12" d="M429.2,449H416l.29,5s13.06,2.87,13.32,1.14A25.33,25.33,0,0,0,429.2,449Z"/><path class="cls-5" d="M429.87,466.31,419.14,466,418,463.63a19,19,0,0,1-9.93,3.16H388.88s-1.15-12.86,15.25-12.86c1.37,0,7.58,1.72,8.72,1.7,1.42,0,2.63-1.73,3.43-1.69,3.49.17,9.92,0,13.5,0C429.78,453.93,431.76,463.76,429.87,466.31Z"/><path class="cls-12" d="M477.66,447.68H464.45l.29,5s13.07,2.86,13.32,1.14A24.9,24.9,0,0,0,477.66,447.68Z"/><path class="cls-5" d="M478.34,465l-10.74-.32-1.17-2.35a18.93,18.93,0,0,1-9.92,3.16H437.35s-1.16-12.86,15.25-12.86c1.36,0,7.58,1.72,8.71,1.7,1.43,0,2.63-1.73,3.43-1.69,3.5.17,9.93,0,13.5,0C478.24,452.65,480.22,462.47,478.34,465Z"/><path class="cls-5" d="M399.15,256.71s-8.51,36.47-1.24,109.84c0,0,13.62,63.24,14.5,83.47l19.77-.48s-2.86-62.25-6.1-83.43c0,0,6.53-47.79,6.62-55.94,0,0-1.81,40.21,7.28,64s20.51,74.1,20.51,74.1l21.48-.59S470.8,376.07,466,363c0,0,5.95-81.17-14.44-107.09C437.1,257.36,399.15,256.71,399.15,256.71Z"/><path class="cls-11" d="M451.76,268.07s-.12,6.9-3,10.16a21.36,21.36,0,0,0-4.89,13c-.2,5,3.42,5.51,7.81,6,3.71.43,5.94-3.28,7-7.84,2.76-11.68-.87-11.06.81-15.82s2.41-6.86,2.41-6.86Z"/><path class="cls-14" d="M434.81,157.74s12.16-.81,18,6.68,18.57,55.62,18.31,59.64-10.43,54.82-10.43,54.82l-12.84-3.21s7.76-47.07,6.95-51.61c0,0-22.73-36.11-26.21-48.68Z"/><circle class="cls-5" cx="382.95" cy="130.25" r="2.05"/><path class="cls-5" d="M388.35,118.34a3.72,3.72,0,0,1,2.12,0,3.8,3.8,0,0,1,1.39,1.34l6.11,8.46a4.57,4.57,0,0,1,7.6,5.08c2-.12,3.61,1.53,5.11,2.87s5.56,1.19,7.24.08a107.71,107.71,0,0,0-6.34-27.45c-1.22-3.47-5.55-7.72-6.26-8.21-3.78-2.62-8.85-1.94-13.38-1.15-7.65,1.32-14,3.6-20.17,8.44a7.24,7.24,0,0,0-2.19,2.39,5.9,5.9,0,0,0-.2,4c.39,1.65.88,4.49,2.11,5.8,1,1.09,2,.81,3.43.58C379.4,119.86,383.88,119.09,388.35,118.34Z"/></g></g></svg>